# xmcd CD database file
#
# Track frame offsets:
#	150
#	21191
#	35383
#	64540
#	90723
#	114887
#	131154
#	156459
#	178803
#	203611
#	217408
#	232700
#	245847
#	269229
#	284897
#	302398
#	321393
#	333779
#
# Disc length: 4774 seconds
#
# Revision: 2
# Processed by: cddbd v1.4b41PL1 Copyright (c) Steve Scherf et al.
# Submitted via: Feurio! 1.52 - http://www.feurio.com
#
DISCID=1212a412
DTITLE=Various Artist - Heimat-Melodien
DYEAR=1900
DGENRE=
TTITLE0=Pregnant Dad - One Picture
TTITLE1=Pregnant Dad - Creeps and Bones
TTITLE2=Feedback - Metal Up (live)
TTITLE3=Satyagraha - Somewhere In The Nowhere
TTITLE4=Satyagraha - If We're All Gone
TTITLE5=The Dudes - I Never Look Back
TTITLE6=The Dudes - Can You Hear Me
TTITLE7=Die Torpedos - Diplomat
TTITLE8=Undiscovered - I've Choosen
TTITLE9=Malouyn - Mary B. (live)
TTITLE10=Malouyn - You (live)
TTITLE11=Malouyn - The Private Soul
TTITLE12=Soulmate - Try
TTITLE13=Soulmate - For The Love
TTITLE14=Soulmate - Take
TTITLE15=Soulmate - Awhile
TTITLE16=Tabaluga MSL-Combo - Arbeit ist das halbe Leben
TTITLE17=Tabaluga MSL-Combo - Nessaja
EXTD=
EXTT0=
EXTT1=
EXTT2=
EXTT3=
EXTT4=
EXTT5=
EXTT6=
EXTT7=
EXTT8=
EXTT9=
EXTT10=
EXTT11=
EXTT12=
EXTT13=
EXTT14=
EXTT15=
EXTT16=
EXTT17=
PLAYORDER=
